<svg width="26" height="16" viewBox="0 0 26 16" fill="none" xmlns="http://www.w3.org/2000/svg">
<path d="M15.5403 12.0493C16.4609 11.7432 17.6396 14.0702 18.8943 14.9608C19.8361 15.6354 20.5573 15.4898 20.5573 15.4898L23.9017 15.4402C23.9017 15.4402 25.6495 15.3293 24.8233 13.9008C24.7549 13.7819 24.3389 12.8418 22.334 10.9071C20.2376 8.8833 20.5217 9.2112 23.0456 5.71231C24.5835 3.5795 25.1988 2.27683 25.0062 1.72208C24.8213 1.18813 23.6918 1.32682 23.6918 1.32682L19.9237 1.35356C19.5568 1.35455 19.2458 1.47145 19.1042 1.86373C19.1013 1.8677 18.5062 3.51412 17.7127 4.91387C16.0362 7.87485 15.367 8.03236 15.0896 7.84711C14.4531 7.41817 14.6139 6.12639 14.6139 5.20808C14.6139 2.33824 15.0299 1.14157 13.7993 0.832494C13.3881 0.729469 13.0876 0.662106 12.039 0.6522C10.6985 0.631397 9.5603 0.6522 8.91511 0.978116C8.48659 1.19903 8.15822 1.68344 8.35756 1.71118C8.60793 1.74585 9.16934 1.86968 9.46978 2.29168C9.85593 2.83851 9.84437 4.06391 9.84437 4.06391C9.84437 4.06391 10.0649 7.44293 9.32437 7.86197C8.81593 8.14925 8.12067 7.5628 6.62519 4.87424C5.86156 3.49926 5.28474 1.97964 5.28474 1.97964C5.28474 1.97964 5.17304 1.69731 4.97082 1.54277C4.73008 1.35951 4.39304 1.30106 4.39304 1.30106L0.816594 1.32483C0.816594 1.32483 0.279261 1.34068 0.0818532 1.58438C-0.0934061 1.80033 0.0674088 2.24612 0.0674088 2.24612C0.0674088 2.24612 2.86867 9.06261 6.04067 12.4961C8.94882 15.6483 12.2537 15.4393 12.2537 15.4393H13.7511C13.7511 15.4393 14.2027 15.3858 14.4339 15.1302C14.6496 14.8924 14.6399 14.4457 14.6399 14.4457C14.6399 14.4457 14.6101 12.3564 15.5403 12.0493Z" fill="white"/>
</svg>
